<?xml version="1.0" encoding="UTF-8" standalone="no"?>
<svg xmlns="http://www.w3.org/2000/svg" xmlns:xlink="http://www.w3.org/1999/xlink" contentStyleType="text/css" height="604px" preserveAspectRatio="none" style="width:642px;height:604px;background:#FFFFFF;" version="1.1" viewBox="0 0 642 604" width="642px" zoomAndPan="magnify"><defs/><g><!--MD5=[bf92c64cf040f2b9e623e8f737fcce93]
cluster test.address.models--><g id="cluster_test.address.models"><path d="M8.5,227 L175.5,227 A3.75,3.75 0 0 1 178,229.5 L185,249.2969 L632.5,249.2969 A2.5,2.5 0 0 1 635,251.7969 L635,594.5 A2.5,2.5 0 0 1 632.5,597 L8.5,597 A2.5,2.5 0 0 1 6,594.5 L6,229.5 A2.5,2.5 0 0 1 8.5,227 " style="stroke:#000000;stroke-width:1.5;fill:none;"/><line style="stroke:#000000;stroke-width:1.5;fill:none;" x1="6" x2="185" y1="249.2969" y2="249.2969"/><text fill="#000000" font-family="sans-serif" font-size="14" font-weight="bold" lengthAdjust="spacing" textLength="166" x="10" y="241.9951">test.address.models</text></g><!--MD5=[2632e90a27117ffad38b3d083bb5dc32]
cluster test.user.models--><g id="cluster_test.user.models"><path d="M11.5,6 L149.5,6 A3.75,3.75 0 0 1 152,8.5 L159,28.2969 L302.5,28.2969 A2.5,2.5 0 0 1 305,30.7969 L305,200.5 A2.5,2.5 0 0 1 302.5,203 L11.5,203 A2.5,2.5 0 0 1 9,200.5 L9,8.5 A2.5,2.5 0 0 1 11.5,6 " style="stroke:#000000;stroke-width:1.5;fill:none;"/><line style="stroke:#000000;stroke-width:1.5;fill:none;" x1="9" x2="159" y1="28.2969" y2="28.2969"/><text fill="#000000" font-family="sans-serif" font-size="14" font-weight="bold" lengthAdjust="spacing" textLength="137" x="13" y="20.9951">test.user.models</text></g><!--MD5=[23b3c8627d634f3957a58c4449244680]
class package--><g id="elem_package"><rect codeLine="28" fill="#F1F1F1" height="178.375" id="package" rx="2.5" ry="2.5" style="stroke:#181818;stroke-width:0.5;" width="292" x="327" y="270.5"/><ellipse cx="438.25" cy="286.5" fill="#E3664A" rx="11" ry="11" style="stroke:#181818;stroke-width:1.0;"/><path d="M439.1719,283.75 C437.2656,283.8906 435.9531,285.0781 435.9531,286.6563 C435.9531,288.0625 437.1563,289.2813 438.6094,289.2813 C438.7656,289.2813 438.9063,289.2656 439.1719,289.2188 L439.1719,289.2813 L439.9688,289.2813 C440.5938,289.2813 440.9063,289.0625 440.9063,288.5781 C440.9063,288.2969 440.7813,288.1094 440.5156,287.9844 L440.5156,283.2031 C440.5156,281.3125 439.2031,279.9531 437.3594,279.9531 C435.1563,279.9531 433.5469,282.0781 433.5469,285.0156 L433.5469,287.875 C433.5469,289.125 433.8281,290.3438 434.3438,291.2656 C435.0625,292.5156 435.9844,293.0781 437.3906,293.0781 C439,293.0781 440.3906,292.4219 440.3906,291.625 C440.3906,291.2344 440.0938,290.9219 439.7188,290.9219 C439.5156,290.9219 439.4219,290.9688 439.1875,291.2188 C438.8594,291.5469 438.1875,291.7656 437.4375,291.7656 C436.6875,291.7656 436.1563,291.5 435.75,290.9063 C435.1719,290.1094 434.8906,289.0625 434.8906,287.7656 L434.8906,285.1094 C434.8906,282.9375 435.9531,281.2969 437.3906,281.2969 C438.4375,281.2969 439.1719,282.0781 439.1719,283.2031 L439.1719,283.75 Z M439.1719,287.8594 C438.9375,287.9063 438.8438,287.9063 438.7344,287.9063 C437.9063,287.9063 437.2969,287.375 437.2969,286.6719 C437.2969,285.8438 438.0469,285.2344 439.1719,285.125 L439.1719,287.8594 Z " fill="#000000"/><text fill="#000000" font-family="sans-serif" font-size="14" lengthAdjust="spacing" textLength="61" x="458.75" y="291.3467">package</text><line style="stroke:#181818;stroke-width:0.5;" x1="328" x2="618" y1="302.5" y2="302.5"/><rect fill="none" height="6" style="stroke:#C82930;stroke-width:1.0;" width="6" x="335" y="310.5"/><text fill="#000000" font-family="sans-serif" font-size="14" lengthAdjust="spacing" textLength="239" x="347" y="319.4951">const StartingStreetNumber: INT</text><rect fill="none" height="6" style="stroke:#C82930;stroke-width:1.0;" width="6" x="335" y="326.7969"/><text fill="#000000" font-family="sans-serif" font-size="14" lengthAdjust="spacing" textLength="184" x="347" y="335.792">var EmptyVariable: string</text><rect fill="none" height="6" style="stroke:#C82930;stroke-width:1.0;" width="6" x="335" y="343.0938"/><text fill="#000000" font-family="sans-serif" font-size="14" lengthAdjust="spacing" textLength="207" x="347" y="352.0889">var PackageVariable: STRING</text><rect fill="none" height="6" style="stroke:#C82930;stroke-width:1.0;" width="6" x="335" y="359.3906"/><text fill="#000000" font-family="sans-serif" font-size="14" lengthAdjust="spacing" textLength="243" x="347" y="368.3857">var AnotherEmptyVariable: string</text><rect fill="none" height="6" style="stroke:#C82930;stroke-width:1.0;" width="6" x="335" y="375.6875"/><text fill="#000000" font-family="sans-serif" font-size="14" lengthAdjust="spacing" textLength="98" x="347" y="384.6826">var A: STRING</text><rect fill="none" height="6" style="stroke:#C82930;stroke-width:1.0;" width="6" x="335" y="391.9844"/><text fill="#000000" font-family="sans-serif" font-size="14" lengthAdjust="spacing" textLength="98" x="347" y="400.9795">var B: STRING</text><rect fill="none" height="6" style="stroke:#C82930;stroke-width:1.0;" width="6" x="335" y="408.2813"/><text fill="#000000" font-family="sans-serif" font-size="14" lengthAdjust="spacing" textLength="266" x="347" y="417.2764">var AnotherPackageVariable: STRING</text><line style="stroke:#181818;stroke-width:0.5;" x1="328" x2="618" y1="424.5781" y2="424.5781"/><ellipse cx="338" cy="435.5781" fill="#84BE84" rx="3" ry="3" style="stroke:#038048;stroke-width:1.0;"/><text fill="#000000" font-family="sans-serif" font-size="14" lengthAdjust="spacing" textLength="137" x="347" y="441.5732">PackageFunction():</text></g><!--MD5=[eae704b2582cad7401466e7cd5c7d55d]
class AddressLike--><g id="elem_AddressLike"><rect codeLine="12" fill="#F1F1F1" height="64.2969" id="AddressLike" rx="2.5" ry="2.5" style="stroke:#181818;stroke-width:0.5;" width="270" x="22" y="517"/><ellipse cx="109.75" cy="533" fill="#B4A7E5" rx="11" ry="11" style="stroke:#181818;stroke-width:1.0;"/><path d="M110.7031,529.7813 L112.4219,529.7813 C112.8125,529.7813 113,529.75 113.125,529.6719 C113.3906,529.5156 113.5313,529.2344 113.5313,528.9375 C113.5313,528.6719 113.4219,528.4063 113.1875,528.2344 C113.0156,528.125 112.875,528.0938 112.4219,528.0938 L107.2813,528.0938 C106.8438,528.0938 106.7188,528.1094 106.5625,528.2031 C106.3125,528.3594 106.1563,528.6563 106.1563,528.9375 C106.1563,529.2188 106.2969,529.4688 106.5156,529.6406 C106.6719,529.75 106.8594,529.7813 107.2813,529.7813 L109,529.7813 L109,536.2969 L107.2813,536.2969 C106.8438,536.2969 106.7188,536.3125 106.5625,536.4219 C106.3125,536.5781 106.1563,536.8594 106.1563,537.1563 C106.1563,537.4063 106.2969,537.6719 106.5156,537.8281 C106.6719,537.9531 106.875,538 107.2813,538 L112.4219,538 C113.1719,538 113.5313,537.7188 113.5313,537.1563 C113.5313,536.875 113.4219,536.625 113.1875,536.4531 C113.0156,536.3281 112.875,536.2969 112.4219,536.2969 L110.7031,536.2969 L110.7031,529.7813 Z " fill="#000000"/><text fill="#000000" font-family="sans-serif" font-size="14" font-style="italic" lengthAdjust="spacing" textLength="86" x="130.25" y="537.8467">AddressLike</text><line style="stroke:#181818;stroke-width:0.5;" x1="23" x2="291" y1="549" y2="549"/><line style="stroke:#181818;stroke-width:0.5;" x1="23" x2="291" y1="557" y2="557"/><ellipse cx="33" cy="568" fill="#84BE84" rx="3" ry="3" style="stroke:#038048;stroke-width:1.0;"/><text fill="#000000" font-family="sans-serif" font-size="14" lengthAdjust="spacing" textLength="244" x="42" y="573.9951">FullAddress(withPostalCode bool):</text></g><!--MD5=[0f39e4cb6f03951afbf6d14bd2505654]
class Address--><g id="elem_Address"><rect codeLine="15" fill="#F1F1F1" height="194.6719" id="Address" rx="2.5" ry="2.5" style="stroke:#181818;stroke-width:0.5;" width="270" x="22" y="262"/><ellipse cx="124.25" cy="278" fill="#ADD1B2" rx="11" ry="11" style="stroke:#181818;stroke-width:1.0;"/><path d="M126.5938,273.6719 C125.6563,273.2344 125.0625,273.0938 124.1875,273.0938 C121.5625,273.0938 119.5625,275.1719 119.5625,277.8906 L119.5625,279.0156 C119.5625,281.5938 121.6719,283.4844 124.5625,283.4844 C125.7813,283.4844 126.9375,283.1875 127.6875,282.6406 C128.2656,282.2344 128.5938,281.7813 128.5938,281.3906 C128.5938,280.9375 128.2031,280.5469 127.7344,280.5469 C127.5156,280.5469 127.3125,280.625 127.125,280.8125 C126.6719,281.2969 126.6719,281.2969 126.4844,281.3906 C126.0625,281.6563 125.375,281.7813 124.6094,281.7813 C122.5625,281.7813 121.2656,280.6875 121.2656,278.9844 L121.2656,277.8906 C121.2656,276.1094 122.5156,274.7969 124.25,274.7969 C124.8281,274.7969 125.4375,274.9531 125.9063,275.2031 C126.3906,275.4844 126.5625,275.7031 126.6563,276.1094 C126.7188,276.5156 126.75,276.6406 126.8906,276.7656 C127.0313,276.9063 127.2656,277.0156 127.4844,277.0156 C127.75,277.0156 128.0156,276.875 128.1875,276.6563 C128.2969,276.5 128.3281,276.3125 128.3281,275.8906 L128.3281,274.4688 C128.3281,274.0313 128.3125,273.9063 128.2188,273.75 C128.0625,273.4844 127.7813,273.3438 127.4844,273.3438 C127.1875,273.3438 126.9844,273.4375 126.7656,273.75 L126.5938,273.6719 Z " fill="#000000"/><text fill="#000000" font-family="sans-serif" font-size="14" lengthAdjust="spacing" textLength="57" x="144.75" y="282.8467">Address</text><line style="stroke:#181818;stroke-width:0.5;" x1="23" x2="291" y1="294" y2="294"/><ellipse cx="33" cy="305" fill="none" rx="3" ry="3" style="stroke:#038048;stroke-width:1.0;"/><text fill="#000000" font-family="sans-serif" font-size="14" lengthAdjust="spacing" textLength="61" x="42" y="310.9951">A: string</text><ellipse cx="33" cy="321.2969" fill="none" rx="3" ry="3" style="stroke:#038048;stroke-width:1.0;"/><text fill="#000000" font-family="sans-serif" font-size="14" lengthAdjust="spacing" textLength="61" x="42" y="327.292">B: string</text><ellipse cx="33" cy="337.5938" fill="none" rx="3" ry="3" style="stroke:#038048;stroke-width:1.0;"/><text fill="#000000" font-family="sans-serif" font-size="14" lengthAdjust="spacing" textLength="98" x="42" y="343.5889">Street: string</text><ellipse cx="33" cy="353.8906" fill="none" rx="3" ry="3" style="stroke:#038048;stroke-width:1.0;"/><text fill="#000000" font-family="sans-serif" font-size="14" lengthAdjust="spacing" textLength="80" x="42" y="359.8857">City: string</text><ellipse cx="33" cy="370.1875" fill="none" rx="3" ry="3" style="stroke:#038048;stroke-width:1.0;"/><text fill="#000000" font-family="sans-serif" font-size="14" lengthAdjust="spacing" textLength="132" x="42" y="376.1826">PostalCode: string</text><ellipse cx="33" cy="386.4844" fill="none" rx="3" ry="3" style="stroke:#038048;stroke-width:1.0;"/><text fill="#000000" font-family="sans-serif" font-size="14" lengthAdjust="spacing" textLength="108" x="42" y="392.4795">Country: string</text><ellipse cx="33" cy="402.7813" fill="none" rx="3" ry="3" style="stroke:#038048;stroke-width:1.0;"/><text fill="#000000" font-family="sans-serif" font-size="14" lengthAdjust="spacing" textLength="202" x="42" y="408.7764">CustomChannel: chan string</text><ellipse cx="33" cy="419.0781" fill="none" rx="3" ry="3" style="stroke:#038048;stroke-width:1.0;"/><text fill="#000000" font-family="sans-serif" font-size="14" lengthAdjust="spacing" textLength="167" x="42" y="425.0732">AnInterface: *interface</text><line style="stroke:#181818;stroke-width:0.5;" x1="23" x2="291" y1="432.375" y2="432.375"/><ellipse cx="33" cy="443.375" fill="#84BE84" rx="3" ry="3" style="stroke:#038048;stroke-width:1.0;"/><text fill="#000000" font-family="sans-serif" font-size="14" lengthAdjust="spacing" textLength="244" x="42" y="449.3701">FullAddress(withPostalCode bool):</text></g><!--MD5=[3fd616f346a44cd59a91eb10b19e157c]
class User--><g id="elem_User"><rect codeLine="34" fill="#F1F1F1" height="145.7813" id="User" rx="2.5" ry="2.5" style="stroke:#181818;stroke-width:0.5;" width="263" x="25.5" y="41"/><ellipse cx="137.25" cy="57" fill="#ADD1B2" rx="11" ry="11" style="stroke:#181818;stroke-width:1.0;"/><path d="M139.5938,52.6719 C138.6563,52.2344 138.0625,52.0938 137.1875,52.0938 C134.5625,52.0938 132.5625,54.1719 132.5625,56.8906 L132.5625,58.0156 C132.5625,60.5938 134.6719,62.4844 137.5625,62.4844 C138.7813,62.4844 139.9375,62.1875 140.6875,61.6406 C141.2656,61.2344 141.5938,60.7813 141.5938,60.3906 C141.5938,59.9375 141.2031,59.5469 140.7344,59.5469 C140.5156,59.5469 140.3125,59.625 140.125,59.8125 C139.6719,60.2969 139.6719,60.2969 139.4844,60.3906 C139.0625,60.6563 138.375,60.7813 137.6094,60.7813 C135.5625,60.7813 134.2656,59.6875 134.2656,57.9844 L134.2656,56.8906 C134.2656,55.1094 135.5156,53.7969 137.25,53.7969 C137.8281,53.7969 138.4375,53.9531 138.9063,54.2031 C139.3906,54.4844 139.5625,54.7031 139.6563,55.1094 C139.7188,55.5156 139.75,55.6406 139.8906,55.7656 C140.0313,55.9063 140.2656,56.0156 140.4844,56.0156 C140.75,56.0156 141.0156,55.875 141.1875,55.6563 C141.2969,55.5 141.3281,55.3125 141.3281,54.8906 L141.3281,53.4688 C141.3281,53.0313 141.3125,52.9063 141.2188,52.75 C141.0625,52.4844 140.7813,52.3438 140.4844,52.3438 C140.1875,52.3438 139.9844,52.4375 139.7656,52.75 L139.5938,52.6719 Z " fill="#000000"/><text fill="#000000" font-family="sans-serif" font-size="14" lengthAdjust="spacing" textLength="31" x="157.75" y="61.8467">User</text><line style="stroke:#181818;stroke-width:0.5;" x1="26.5" x2="287.5" y1="73" y2="73"/><ellipse cx="36.5" cy="84" fill="none" rx="3" ry="3" style="stroke:#038048;stroke-width:1.0;"/><text fill="#000000" font-family="sans-serif" font-size="14" lengthAdjust="spacing" textLength="124" x="45.5" y="89.9951">FirstName: string</text><ellipse cx="36.5" cy="100.2969" fill="none" rx="3" ry="3" style="stroke:#038048;stroke-width:1.0;"/><text fill="#000000" font-family="sans-serif" font-size="14" lengthAdjust="spacing" textLength="122" x="45.5" y="106.292">LastName: string</text><ellipse cx="36.5" cy="116.5938" fill="none" rx="3" ry="3" style="stroke:#038048;stroke-width:1.0;"/><text fill="#000000" font-family="sans-serif" font-size="14" lengthAdjust="spacing" textLength="73" x="45.5" y="122.5889">Age: uint8</text><ellipse cx="36.5" cy="132.8906" fill="none" rx="3" ry="3" style="stroke:#038048;stroke-width:1.0;"/><text fill="#000000" font-family="sans-serif" font-size="14" lengthAdjust="spacing" textLength="130" x="45.5" y="138.8857">Address: *Address</text><rect fill="none" height="6" style="stroke:#C82930;stroke-width:1.0;" width="6" x="33.5" y="146.1875"/><text fill="#000000" font-family="sans-serif" font-size="14" lengthAdjust="spacing" textLength="175" x="45.5" y="155.1826">privateAddress: Address</text><line style="stroke:#181818;stroke-width:0.5;" x1="26.5" x2="287.5" y1="162.4844" y2="162.4844"/><ellipse cx="36.5" cy="173.4844" fill="#84BE84" rx="3" ry="3" style="stroke:#038048;stroke-width:1.0;"/><text fill="#000000" font-family="sans-serif" font-size="14" lengthAdjust="spacing" textLength="237" x="45.5" y="179.4795">*SetFirstName(firstName string):</text></g><!--MD5=[6cb56ad2db0e14266f83041296b08dce]
link User to Address--><g id="link_User_Address"><path codeLine="43" d="M157,187.07 C157,208.843 157,233.175 157,256.511 " fill="none" id="User-to-Address" style="stroke:#181818;stroke-width:1.0;"/><polygon fill="#181818" points="157,261.788,161,252.788,157,256.788,153,252.788,157,261.788" style="stroke:#181818;stroke-width:1.0;"/></g><!--MD5=[c7297c3442999a1bddcd4bb8818ae489]
link Address to AddressLike--><g id="link_Address_AddressLike"><path codeLine="44" d="M157,457.271 C157,470.984 157,484.61 157,496.975 " fill="none" id="Address-to-AddressLike" style="stroke:#181818;stroke-width:1.0;"/><polygon fill="none" points="164,496.996,157,516.9963,150,496.996,164,496.996" style="stroke:#181818;stroke-width:1.0;"/></g><!--MD5=[2dea562a9249b6ba69dc9e8dbc70d89c]
@startuml
package test.address.models{
annotation package {
-const StartingStreetNumber: INT
-var EmptyVariable: string
-var PackageVariable: STRING
-var AnotherEmptyVariable: string
-var A: STRING
-var B: STRING
-var AnotherPackageVariable: STRING

}
interface AddressLike{
+FullAddress(withPostalCode bool): 
}
class Address {
+A: string
+B: string
+Street: string
+City: string
+PostalCode: string
+Country: string
+CustomChannel: chan string
+AnInterface: *interface
+FullAddress(withPostalCode bool): 
}
}
package test.user.models{
annotation package {


+PackageFunction(): 
}

class User {
+FirstName: string
+LastName: string
+Age: uint8
+Address: *Address
-privateAddress: Address
+*SetFirstName(firstName string): 
}
}
User - -> Address
Address - -|> AddressLike
@enduml

PlantUML version 1.2022.4beta2(Unknown compile time)
(GPL source distribution)
Java Runtime: Java(TM) SE Runtime Environment
JVM: Java HotSpot(TM) 64-Bit Server VM
Default Encoding: UTF-8
Language: en
Country: US
--></g></svg>