<?xml version="1.0" encoding="UTF-8" standalone="no"?>
<svg xmlns="http://www.w3.org/2000/svg" xmlns:xlink="http://www.w3.org/1999/xlink" contentStyleType="text/css" height="604px" preserveAspectRatio="none" style="width:688px;height:604px;background:#FFFFFF;" version="1.1" viewBox="0 0 688 604" width="688px" zoomAndPan="magnify"><defs/><g><!--MD5=[bf92c64cf040f2b9e623e8f737fcce93]
cluster test.address.models--><g id="cluster_test.address.models"><path d="M8.5,227 L175.5,227 A3.75,3.75 0 0 1 178,229.5 L185,249.2969 L678.5,249.2969 A2.5,2.5 0 0 1 681,251.7969 L681,594.5 A2.5,2.5 0 0 1 678.5,597 L8.5,597 A2.5,2.5 0 0 1 6,594.5 L6,229.5 A2.5,2.5 0 0 1 8.5,227 " style="stroke:#000000;stroke-width:1.5;fill:none;"/><line style="stroke:#000000;stroke-width:1.5;fill:none;" x1="6" x2="185" y1="249.2969" y2="249.2969"/><text fill="#000000" font-family="sans-serif" font-size="14" font-weight="bold" lengthAdjust="spacing" textLength="166" x="10" y="241.9951">test.address.models</text></g><!--MD5=[2632e90a27117ffad38b3d083bb5dc32]
cluster test.user.models--><g id="cluster_test.user.models"><path d="M37.5,6 L175.5,6 A3.75,3.75 0 0 1 178,8.5 L185,28.2969 L322.5,28.2969 A2.5,2.5 0 0 1 325,30.7969 L325,200.5 A2.5,2.5 0 0 1 322.5,203 L37.5,203 A2.5,2.5 0 0 1 35,200.5 L35,8.5 A2.5,2.5 0 0 1 37.5,6 " style="stroke:#000000;stroke-width:1.5;fill:none;"/><line style="stroke:#000000;stroke-width:1.5;fill:none;" x1="35" x2="185" y1="28.2969" y2="28.2969"/><text fill="#000000" font-family="sans-serif" font-size="14" font-weight="bold" lengthAdjust="spacing" textLength="137" x="39" y="20.9951">test.user.models</text></g><!--MD5=[23b3c8627d634f3957a58c4449244680]
class package--><g id="elem_package"><rect codeLine="28" fill="#F1F1F1" height="178.375" id="package" rx="2.5" ry="2.5" style="stroke:#181818;stroke-width:0.5;" width="292" x="373" y="270.5"/><ellipse cx="484.25" cy="286.5" fill="#E3664A" rx="11" ry="11" style="stroke:#181818;stroke-width:1.0;"/><path d="M485.1719,283.75 C483.2656,283.8906 481.9531,285.0781 481.9531,286.6563 C481.9531,288.0625 483.1563,289.2813 484.6094,289.2813 C484.7656,289.2813 484.9063,289.2656 485.1719,289.2188 L485.1719,289.2813 L485.9688,289.2813 C486.5938,289.2813 486.9063,289.0625 486.9063,288.5781 C486.9063,288.2969 486.7813,288.1094 486.5156,287.9844 L486.5156,283.2031 C486.5156,281.3125 485.2031,279.9531 483.3594,279.9531 C481.1563,279.9531 479.5469,282.0781 479.5469,285.0156 L479.5469,287.875 C479.5469,289.125 479.8281,290.3438 480.3438,291.2656 C481.0625,292.5156 481.9844,293.0781 483.3906,293.0781 C485,293.0781 486.3906,292.4219 486.3906,291.625 C486.3906,291.2344 486.0938,290.9219 485.7188,290.9219 C485.5156,290.9219 485.4219,290.9688 485.1875,291.2188 C484.8594,291.5469 484.1875,291.7656 483.4375,291.7656 C482.6875,291.7656 482.1563,291.5 481.75,290.9063 C481.1719,290.1094 480.8906,289.0625 480.8906,287.7656 L480.8906,285.1094 C480.8906,282.9375 481.9531,281.2969 483.3906,281.2969 C484.4375,281.2969 485.1719,282.0781 485.1719,283.2031 L485.1719,283.75 Z M485.1719,287.8594 C484.9375,287.9063 484.8438,287.9063 484.7344,287.9063 C483.9063,287.9063 483.2969,287.375 483.2969,286.6719 C483.2969,285.8438 484.0469,285.2344 485.1719,285.125 L485.1719,287.8594 Z " fill="#000000"/><text fill="#000000" font-family="sans-serif" font-size="14" lengthAdjust="spacing" textLength="61" x="504.75" y="291.3467">package</text><line style="stroke:#181818;stroke-width:0.5;" x1="374" x2="664" y1="302.5" y2="302.5"/><rect fill="none" height="6" style="stroke:#C82930;stroke-width:1.0;" width="6" x="381" y="310.5"/><text fill="#000000" font-family="sans-serif" font-size="14" lengthAdjust="spacing" textLength="239" x="393" y="319.4951">const StartingStreetNumber: INT</text><rect fill="none" height="6" style="stroke:#C82930;stroke-width:1.0;" width="6" x="381" y="326.7969"/><text fill="#000000" font-family="sans-serif" font-size="14" lengthAdjust="spacing" textLength="98" x="393" y="335.792">var A: STRING</text><rect fill="none" height="6" style="stroke:#C82930;stroke-width:1.0;" width="6" x="381" y="343.0938"/><text fill="#000000" font-family="sans-serif" font-size="14" lengthAdjust="spacing" textLength="98" x="393" y="352.0889">var B: STRING</text><rect fill="none" height="6" style="stroke:#C82930;stroke-width:1.0;" width="6" x="381" y="359.3906"/><text fill="#000000" font-family="sans-serif" font-size="14" lengthAdjust="spacing" textLength="184" x="393" y="368.3857">var EmptyVariable: string</text><rect fill="none" height="6" style="stroke:#C82930;stroke-width:1.0;" width="6" x="381" y="375.6875"/><text fill="#000000" font-family="sans-serif" font-size="14" lengthAdjust="spacing" textLength="207" x="393" y="384.6826">var PackageVariable: STRING</text><rect fill="none" height="6" style="stroke:#C82930;stroke-width:1.0;" width="6" x="381" y="391.9844"/><text fill="#000000" font-family="sans-serif" font-size="14" lengthAdjust="spacing" textLength="266" x="393" y="400.9795">var AnotherPackageVariable: STRING</text><rect fill="none" height="6" style="stroke:#C82930;stroke-width:1.0;" width="6" x="381" y="408.2813"/><text fill="#000000" font-family="sans-serif" font-size="14" lengthAdjust="spacing" textLength="243" x="393" y="417.2764">var AnotherEmptyVariable: string</text><line style="stroke:#181818;stroke-width:0.5;" x1="374" x2="664" y1="424.5781" y2="424.5781"/><ellipse cx="384" cy="435.5781" fill="#84BE84" rx="3" ry="3" style="stroke:#038048;stroke-width:1.0;"/><text fill="#000000" font-family="sans-serif" font-size="14" lengthAdjust="spacing" textLength="183" x="393" y="441.5732">PackageFunction(): string</text></g><!--MD5=[eae704b2582cad7401466e7cd5c7d55d]
class AddressLike--><g id="elem_AddressLike"><rect codeLine="12" fill="#F1F1F1" height="64.2969" id="AddressLike" rx="2.5" ry="2.5" style="stroke:#181818;stroke-width:0.5;" width="316" x="22" y="517"/><ellipse cx="132.75" cy="533" fill="#B4A7E5" rx="11" ry="11" style="stroke:#181818;stroke-width:1.0;"/><path d="M133.7031,529.7813 L135.4219,529.7813 C135.8125,529.7813 136,529.75 136.125,529.6719 C136.3906,529.5156 136.5313,529.2344 136.5313,528.9375 C136.5313,528.6719 136.4219,528.4063 136.1875,528.2344 C136.0156,528.125 135.875,528.0938 135.4219,528.0938 L130.2813,528.0938 C129.8438,528.0938 129.7188,528.1094 129.5625,528.2031 C129.3125,528.3594 129.1563,528.6563 129.1563,528.9375 C129.1563,529.2188 129.2969,529.4688 129.5156,529.6406 C129.6719,529.75 129.8594,529.7813 130.2813,529.7813 L132,529.7813 L132,536.2969 L130.2813,536.2969 C129.8438,536.2969 129.7188,536.3125 129.5625,536.4219 C129.3125,536.5781 129.1563,536.8594 129.1563,537.1563 C129.1563,537.4063 129.2969,537.6719 129.5156,537.8281 C129.6719,537.9531 129.875,538 130.2813,538 L135.4219,538 C136.1719,538 136.5313,537.7188 136.5313,537.1563 C136.5313,536.875 136.4219,536.625 136.1875,536.4531 C136.0156,536.3281 135.875,536.2969 135.4219,536.2969 L133.7031,536.2969 L133.7031,529.7813 Z " fill="#000000"/><text fill="#000000" font-family="sans-serif" font-size="14" font-style="italic" lengthAdjust="spacing" textLength="86" x="153.25" y="537.8467">AddressLike</text><line style="stroke:#181818;stroke-width:0.5;" x1="23" x2="337" y1="549" y2="549"/><line style="stroke:#181818;stroke-width:0.5;" x1="23" x2="337" y1="557" y2="557"/><ellipse cx="33" cy="568" fill="#84BE84" rx="3" ry="3" style="stroke:#038048;stroke-width:1.0;"/><text fill="#000000" font-family="sans-serif" font-size="14" lengthAdjust="spacing" textLength="290" x="42" y="573.9951">FullAddress(withPostalCode bool): string</text></g><!--MD5=[0f39e4cb6f03951afbf6d14bd2505654]
class Address--><g id="elem_Address"><rect codeLine="15" fill="#F1F1F1" height="194.6719" id="Address" rx="2.5" ry="2.5" style="stroke:#181818;stroke-width:0.5;" width="316" x="22" y="262"/><ellipse cx="147.25" cy="278" fill="#ADD1B2" rx="11" ry="11" style="stroke:#181818;stroke-width:1.0;"/><path d="M149.5938,273.6719 C148.6563,273.2344 148.0625,273.0938 147.1875,273.0938 C144.5625,273.0938 142.5625,275.1719 142.5625,277.8906 L142.5625,279.0156 C142.5625,281.5938 144.6719,283.4844 147.5625,283.4844 C148.7813,283.4844 149.9375,283.1875 150.6875,282.6406 C151.2656,282.2344 151.5938,281.7813 151.5938,281.3906 C151.5938,280.9375 151.2031,280.5469 150.7344,280.5469 C150.5156,280.5469 150.3125,280.625 150.125,280.8125 C149.6719,281.2969 149.6719,281.2969 149.4844,281.3906 C149.0625,281.6563 148.375,281.7813 147.6094,281.7813 C145.5625,281.7813 144.2656,280.6875 144.2656,278.9844 L144.2656,277.8906 C144.2656,276.1094 145.5156,274.7969 147.25,274.7969 C147.8281,274.7969 148.4375,274.9531 148.9063,275.2031 C149.3906,275.4844 149.5625,275.7031 149.6563,276.1094 C149.7188,276.5156 149.75,276.6406 149.8906,276.7656 C150.0313,276.9063 150.2656,277.0156 150.4844,277.0156 C150.75,277.0156 151.0156,276.875 151.1875,276.6563 C151.2969,276.5 151.3281,276.3125 151.3281,275.8906 L151.3281,274.4688 C151.3281,274.0313 151.3125,273.9063 151.2188,273.75 C151.0625,273.4844 150.7813,273.3438 150.4844,273.3438 C150.1875,273.3438 149.9844,273.4375 149.7656,273.75 L149.5938,273.6719 Z " fill="#000000"/><text fill="#000000" font-family="sans-serif" font-size="14" lengthAdjust="spacing" textLength="57" x="167.75" y="282.8467">Address</text><line style="stroke:#181818;stroke-width:0.5;" x1="23" x2="337" y1="294" y2="294"/><ellipse cx="33" cy="305" fill="none" rx="3" ry="3" style="stroke:#038048;stroke-width:1.0;"/><text fill="#000000" font-family="sans-serif" font-size="14" lengthAdjust="spacing" textLength="61" x="42" y="310.9951">A: string</text><ellipse cx="33" cy="321.2969" fill="none" rx="3" ry="3" style="stroke:#038048;stroke-width:1.0;"/><text fill="#000000" font-family="sans-serif" font-size="14" lengthAdjust="spacing" textLength="61" x="42" y="327.292">B: string</text><ellipse cx="33" cy="337.5938" fill="none" rx="3" ry="3" style="stroke:#038048;stroke-width:1.0;"/><text fill="#000000" font-family="sans-serif" font-size="14" lengthAdjust="spacing" textLength="98" x="42" y="343.5889">Street: string</text><ellipse cx="33" cy="353.8906" fill="none" rx="3" ry="3" style="stroke:#038048;stroke-width:1.0;"/><text fill="#000000" font-family="sans-serif" font-size="14" lengthAdjust="spacing" textLength="80" x="42" y="359.8857">City: string</text><ellipse cx="33" cy="370.1875" fill="none" rx="3" ry="3" style="stroke:#038048;stroke-width:1.0;"/><text fill="#000000" font-family="sans-serif" font-size="14" lengthAdjust="spacing" textLength="132" x="42" y="376.1826">PostalCode: string</text><ellipse cx="33" cy="386.4844" fill="none" rx="3" ry="3" style="stroke:#038048;stroke-width:1.0;"/><text fill="#000000" font-family="sans-serif" font-size="14" lengthAdjust="spacing" textLength="108" x="42" y="392.4795">Country: string</text><ellipse cx="33" cy="402.7813" fill="none" rx="3" ry="3" style="stroke:#038048;stroke-width:1.0;"/><text fill="#000000" font-family="sans-serif" font-size="14" lengthAdjust="spacing" textLength="202" x="42" y="408.7764">CustomChannel: chan string</text><ellipse cx="33" cy="419.0781" fill="none" rx="3" ry="3" style="stroke:#038048;stroke-width:1.0;"/><text fill="#000000" font-family="sans-serif" font-size="14" lengthAdjust="spacing" textLength="167" x="42" y="425.0732">AnInterface: *interface</text><line style="stroke:#181818;stroke-width:0.5;" x1="23" x2="337" y1="432.375" y2="432.375"/><ellipse cx="33" cy="443.375" fill="#84BE84" rx="3" ry="3" style="stroke:#038048;stroke-width:1.0;"/><text fill="#000000" font-family="sans-serif" font-size="14" lengthAdjust="spacing" textLength="290" x="42" y="449.3701">FullAddress(withPostalCode bool): string</text></g><!--MD5=[3fd616f346a44cd59a91eb10b19e157c]
class User--><g id="elem_User"><rect codeLine="34" fill="#F1F1F1" height="145.7813" id="User" rx="2.5" ry="2.5" style="stroke:#181818;stroke-width:0.5;" width="258" x="51" y="41"/><ellipse cx="160.25" cy="57" fill="#ADD1B2" rx="11" ry="11" style="stroke:#181818;stroke-width:1.0;"/><path d="M162.5938,52.6719 C161.6563,52.2344 161.0625,52.0938 160.1875,52.0938 C157.5625,52.0938 155.5625,54.1719 155.5625,56.8906 L155.5625,58.0156 C155.5625,60.5938 157.6719,62.4844 160.5625,62.4844 C161.7813,62.4844 162.9375,62.1875 163.6875,61.6406 C164.2656,61.2344 164.5938,60.7813 164.5938,60.3906 C164.5938,59.9375 164.2031,59.5469 163.7344,59.5469 C163.5156,59.5469 163.3125,59.625 163.125,59.8125 C162.6719,60.2969 162.6719,60.2969 162.4844,60.3906 C162.0625,60.6563 161.375,60.7813 160.6094,60.7813 C158.5625,60.7813 157.2656,59.6875 157.2656,57.9844 L157.2656,56.8906 C157.2656,55.1094 158.5156,53.7969 160.25,53.7969 C160.8281,53.7969 161.4375,53.9531 161.9063,54.2031 C162.3906,54.4844 162.5625,54.7031 162.6563,55.1094 C162.7188,55.5156 162.75,55.6406 162.8906,55.7656 C163.0313,55.9063 163.2656,56.0156 163.4844,56.0156 C163.75,56.0156 164.0156,55.875 164.1875,55.6563 C164.2969,55.5 164.3281,55.3125 164.3281,54.8906 L164.3281,53.4688 C164.3281,53.0313 164.3125,52.9063 164.2188,52.75 C164.0625,52.4844 163.7813,52.3438 163.4844,52.3438 C163.1875,52.3438 162.9844,52.4375 162.7656,52.75 L162.5938,52.6719 Z " fill="#000000"/><text fill="#000000" font-family="sans-serif" font-size="14" lengthAdjust="spacing" textLength="31" x="180.75" y="61.8467">User</text><line style="stroke:#181818;stroke-width:0.5;" x1="52" x2="308" y1="73" y2="73"/><ellipse cx="62" cy="84" fill="none" rx="3" ry="3" style="stroke:#038048;stroke-width:1.0;"/><text fill="#000000" font-family="sans-serif" font-size="14" lengthAdjust="spacing" textLength="124" x="71" y="89.9951">FirstName: string</text><ellipse cx="62" cy="100.2969" fill="none" rx="3" ry="3" style="stroke:#038048;stroke-width:1.0;"/><text fill="#000000" font-family="sans-serif" font-size="14" lengthAdjust="spacing" textLength="122" x="71" y="106.292">LastName: string</text><ellipse cx="62" cy="116.5938" fill="none" rx="3" ry="3" style="stroke:#038048;stroke-width:1.0;"/><text fill="#000000" font-family="sans-serif" font-size="14" lengthAdjust="spacing" textLength="73" x="71" y="122.5889">Age: uint8</text><ellipse cx="62" cy="132.8906" fill="none" rx="3" ry="3" style="stroke:#038048;stroke-width:1.0;"/><text fill="#000000" font-family="sans-serif" font-size="14" lengthAdjust="spacing" textLength="130" x="71" y="138.8857">Address: *Address</text><rect fill="none" height="6" style="stroke:#C82930;stroke-width:1.0;" width="6" x="59" y="146.1875"/><text fill="#000000" font-family="sans-serif" font-size="14" lengthAdjust="spacing" textLength="175" x="71" y="155.1826">privateAddress: Address</text><line style="stroke:#181818;stroke-width:0.5;" x1="52" x2="308" y1="162.4844" y2="162.4844"/><ellipse cx="62" cy="173.4844" fill="#84BE84" rx="3" ry="3" style="stroke:#038048;stroke-width:1.0;"/><text fill="#000000" font-family="sans-serif" font-size="14" lengthAdjust="spacing" textLength="232" x="71" y="179.4795">*SetFirstName(firstName string)</text></g><!--MD5=[6cb56ad2db0e14266f83041296b08dce]
link User to Address--><g id="link_User_Address"><path codeLine="43" d="M180,187.07 C180,208.843 180,233.175 180,256.511 " fill="none" id="User-to-Address" style="stroke:#181818;stroke-width:1.0;"/><polygon fill="#181818" points="180,261.788,184,252.788,180,256.788,176,252.788,180,261.788" style="stroke:#181818;stroke-width:1.0;"/></g><!--MD5=[c7297c3442999a1bddcd4bb8818ae489]
link Address to AddressLike--><g id="link_Address_AddressLike"><path codeLine="44" d="M180,457.271 C180,470.984 180,484.61 180,496.975 " fill="none" id="Address-to-AddressLike" style="stroke:#181818;stroke-width:1.0;"/><polygon fill="none" points="187,496.996,180,516.9963,173,496.996,187,496.996" style="stroke:#181818;stroke-width:1.0;"/></g><!--MD5=[9803b44bf7bfe1f784b3a30dda99c6ba]
@startuml
package test.address.models{
annotation package {
-const StartingStreetNumber: INT
-var A: STRING
-var B: STRING
-var EmptyVariable: string
-var PackageVariable: STRING
-var AnotherPackageVariable: STRING
-var AnotherEmptyVariable: string

}
interface AddressLike{
+FullAddress(withPostalCode bool): string
}
class Address {
+A: string
+B: string
+Street: string
+City: string
+PostalCode: string
+Country: string
+CustomChannel: chan string
+AnInterface: *interface
+FullAddress(withPostalCode bool): string
}
}
package test.user.models{
annotation package {


+PackageFunction(): string
}

class User {
+FirstName: string
+LastName: string
+Age: uint8
+Address: *Address
-privateAddress: Address
+*SetFirstName(firstName string)
}
}
User - -> Address
Address - -|> AddressLike
@enduml

PlantUML version 1.2022.4beta2(Unknown compile time)
(GPL source distribution)
Java Runtime: Java(TM) SE Runtime Environment
JVM: Java HotSpot(TM) 64-Bit Server VM
Default Encoding: UTF-8
Language: en
Country: US
--></g></svg>