<?xml version="1.0" encoding="UTF-8" standalone="no"?>
<svg xmlns="http://www.w3.org/2000/svg" xmlns:xlink="http://www.w3.org/1999/xlink" contentStyleType="text/css" height="759px" preserveAspectRatio="none" style="width:688px;height:759px;background:#FFFFFF;" version="1.1" viewBox="0 0 688 759" width="688px" zoomAndPan="magnify"><defs/><g><!--MD5=[3f2a5bb0092e224bd70a9698ba9ea36c]
cluster test/address/models--><g id="cluster_test/address/models"><path d="M8.5,382 L175.5,382 A3.75,3.75 0 0 1 178,384.5 L185,404.2969 L678.5,404.2969 A2.5,2.5 0 0 1 681,406.7969 L681,749.5 A2.5,2.5 0 0 1 678.5,752 L8.5,752 A2.5,2.5 0 0 1 6,749.5 L6,384.5 A2.5,2.5 0 0 1 8.5,382 " fill="none" style="stroke:#000000;stroke-width:1.5;"/><line style="stroke:#000000;stroke-width:1.5;" x1="6" x2="185" y1="404.2969" y2="404.2969"/><text fill="#000000" font-family="sans-serif" font-size="14" font-weight="bold" lengthAdjust="spacing" textLength="166" x="10" y="396.9951">test/address/models</text></g><!--MD5=[868b49193c55604e24a7ab718e72c10c]
cluster test/calculator/models--><g id="cluster_test/calculator/models"><path d="M84.5,6 L270.5,6 A3.75,3.75 0 0 1 273,8.5 L280,28.2969 L399.5,28.2969 A2.5,2.5 0 0 1 402,30.7969 L402,151.5 A2.5,2.5 0 0 1 399.5,154 L84.5,154 A2.5,2.5 0 0 1 82,151.5 L82,8.5 A2.5,2.5 0 0 1 84.5,6 " fill="none" style="stroke:#000000;stroke-width:1.5;"/><line style="stroke:#000000;stroke-width:1.5;" x1="82" x2="280" y1="28.2969" y2="28.2969"/><text fill="#000000" font-family="sans-serif" font-size="14" font-weight="bold" lengthAdjust="spacing" textLength="185" x="86" y="20.9951">test/calculator/models</text></g><!--MD5=[957b18fd95a6e46adbdabd1f3456b3b9]
cluster test/user/models--><g id="cluster_test/user/models"><path d="M40.5,178 L178.5,178 A3.75,3.75 0 0 1 181,180.5 L188,200.2969 L563.5,200.2969 A2.5,2.5 0 0 1 566,202.7969 L566,355.5 A2.5,2.5 0 0 1 563.5,358 L40.5,358 A2.5,2.5 0 0 1 38,355.5 L38,180.5 A2.5,2.5 0 0 1 40.5,178 " fill="none" style="stroke:#000000;stroke-width:1.5;"/><line style="stroke:#000000;stroke-width:1.5;" x1="38" x2="188" y1="200.2969" y2="200.2969"/><text fill="#000000" font-family="sans-serif" font-size="14" font-weight="bold" lengthAdjust="spacing" textLength="137" x="42" y="192.9951">test/user/models</text></g><!--MD5=[76ad66a73a99f895e85aa72a44cec80a]
class test/address/models--><g id="elem_test/address/models"><rect codeLine="2" fill="#F1F1F1" height="162.0781" id="test/address/models" rx="2.5" ry="2.5" style="stroke:#181818;stroke-width:0.5;" width="292" x="373" y="433.5"/><ellipse cx="441.25" cy="449.5" fill="#E3664A" rx="11" ry="11" style="stroke:#181818;stroke-width:1.0;"/><path d="M442.1719,446.75 C440.2656,446.8906 438.9531,448.0781 438.9531,449.6563 C438.9531,451.0625 440.1563,452.2813 441.6094,452.2813 C441.7656,452.2813 441.9063,452.2656 442.1719,452.2188 L442.1719,452.2813 L442.9688,452.2813 C443.5938,452.2813 443.9063,452.0625 443.9063,451.5781 C443.9063,451.2969 443.7813,451.1094 443.5156,450.9844 L443.5156,446.2031 C443.5156,444.3125 442.2031,442.9531 440.3594,442.9531 C438.1563,442.9531 436.5469,445.0781 436.5469,448.0156 L436.5469,450.875 C436.5469,452.125 436.8281,453.3438 437.3438,454.2656 C438.0625,455.5156 438.9844,456.0781 440.3906,456.0781 C442,456.0781 443.3906,455.4219 443.3906,454.625 C443.3906,454.2344 443.0938,453.9219 442.7188,453.9219 C442.5156,453.9219 442.4219,453.9688 442.1875,454.2188 C441.8594,454.5469 441.1875,454.7656 440.4375,454.7656 C439.6875,454.7656 439.1563,454.5 438.75,453.9063 C438.1719,453.1094 437.8906,452.0625 437.8906,450.7656 L437.8906,448.1094 C437.8906,445.9375 438.9531,444.2969 440.3906,444.2969 C441.4375,444.2969 442.1719,445.0781 442.1719,446.2031 L442.1719,446.75 Z M442.1719,450.8594 C441.9375,450.9063 441.8438,450.9063 441.7344,450.9063 C440.9063,450.9063 440.2969,450.375 440.2969,449.6719 C440.2969,448.8438 441.0469,448.2344 442.1719,448.125 L442.1719,450.8594 Z " fill="#000000"/><text fill="#000000" font-family="sans-serif" font-size="14" lengthAdjust="spacing" textLength="147" x="461.75" y="454.3467">test/address/models</text><line style="stroke:#181818;stroke-width:0.5;" x1="374" x2="664" y1="465.5" y2="465.5"/><rect fill="none" height="6" style="stroke:#C82930;stroke-width:1.0;" width="6" x="381" y="476.1484"/><text fill="#000000" font-family="sans-serif" font-size="14" lengthAdjust="spacing" textLength="239" x="393" y="482.4951">const StartingStreetNumber: INT</text><rect fill="none" height="6" style="stroke:#C82930;stroke-width:1.0;" width="6" x="381" y="492.4453"/><text fill="#000000" font-family="sans-serif" font-size="14" lengthAdjust="spacing" textLength="98" x="393" y="498.792">var B: STRING</text><rect fill="none" height="6" style="stroke:#C82930;stroke-width:1.0;" width="6" x="381" y="508.7422"/><text fill="#000000" font-family="sans-serif" font-size="14" lengthAdjust="spacing" textLength="207" x="393" y="515.0889">var PackageVariable: STRING</text><rect fill="none" height="6" style="stroke:#C82930;stroke-width:1.0;" width="6" x="381" y="525.0391"/><text fill="#000000" font-family="sans-serif" font-size="14" lengthAdjust="spacing" textLength="266" x="393" y="531.3857">var AnotherPackageVariable: STRING</text><rect fill="none" height="6" style="stroke:#C82930;stroke-width:1.0;" width="6" x="381" y="541.3359"/><text fill="#000000" font-family="sans-serif" font-size="14" lengthAdjust="spacing" textLength="184" x="393" y="547.6826">var EmptyVariable: string</text><rect fill="none" height="6" style="stroke:#C82930;stroke-width:1.0;" width="6" x="381" y="557.6328"/><text fill="#000000" font-family="sans-serif" font-size="14" lengthAdjust="spacing" textLength="243" x="393" y="563.9795">var AnotherEmptyVariable: string</text><rect fill="none" height="6" style="stroke:#C82930;stroke-width:1.0;" width="6" x="381" y="573.9297"/><text fill="#000000" font-family="sans-serif" font-size="14" lengthAdjust="spacing" textLength="98" x="393" y="580.2764">var A: STRING</text><line style="stroke:#181818;stroke-width:0.5;" x1="374" x2="664" y1="587.5781" y2="587.5781"/></g><!--MD5=[eae704b2582cad7401466e7cd5c7d55d]
class AddressLike--><g id="elem_AddressLike"><rect codeLine="12" fill="#F1F1F1" height="64.2969" id="AddressLike" rx="2.5" ry="2.5" style="stroke:#181818;stroke-width:0.5;" width="316" x="22" y="672"/><ellipse cx="132.75" cy="688" fill="#B4A7E5" rx="11" ry="11" style="stroke:#181818;stroke-width:1.0;"/><path d="M133.7031,684.7813 L135.4219,684.7813 C135.8125,684.7813 136,684.75 136.125,684.6719 C136.3906,684.5156 136.5313,684.2344 136.5313,683.9375 C136.5313,683.6719 136.4219,683.4063 136.1875,683.2344 C136.0156,683.125 135.875,683.0938 135.4219,683.0938 L130.2813,683.0938 C129.8438,683.0938 129.7188,683.1094 129.5625,683.2031 C129.3125,683.3594 129.1563,683.6563 129.1563,683.9375 C129.1563,684.2188 129.2969,684.4688 129.5156,684.6406 C129.6719,684.75 129.8594,684.7813 130.2813,684.7813 L132,684.7813 L132,691.2969 L130.2813,691.2969 C129.8438,691.2969 129.7188,691.3125 129.5625,691.4219 C129.3125,691.5781 129.1563,691.8594 129.1563,692.1563 C129.1563,692.4063 129.2969,692.6719 129.5156,692.8281 C129.6719,692.9531 129.875,693 130.2813,693 L135.4219,693 C136.1719,693 136.5313,692.7188 136.5313,692.1563 C136.5313,691.875 136.4219,691.625 136.1875,691.4531 C136.0156,691.3281 135.875,691.2969 135.4219,691.2969 L133.7031,691.2969 L133.7031,684.7813 Z " fill="#000000"/><text fill="#000000" font-family="sans-serif" font-size="14" font-style="italic" lengthAdjust="spacing" textLength="86" x="153.25" y="692.8467">AddressLike</text><line style="stroke:#181818;stroke-width:0.5;" x1="23" x2="337" y1="704" y2="704"/><line style="stroke:#181818;stroke-width:0.5;" x1="23" x2="337" y1="712" y2="712"/><ellipse cx="33" cy="725.6484" fill="#84BE84" rx="3" ry="3" style="stroke:#038048;stroke-width:1.0;"/><text fill="#000000" font-family="sans-serif" font-size="14" lengthAdjust="spacing" textLength="290" x="42" y="728.9951">FullAddress(withPostalCode bool): string</text></g><!--MD5=[0f39e4cb6f03951afbf6d14bd2505654]
class Address--><g id="elem_Address"><rect codeLine="15" fill="#F1F1F1" height="194.6719" id="Address" rx="2.5" ry="2.5" style="stroke:#181818;stroke-width:0.5;" width="316" x="22" y="417"/><ellipse cx="147.25" cy="433" fill="#ADD1B2" rx="11" ry="11" style="stroke:#181818;stroke-width:1.0;"/><path d="M149.5938,428.6719 C148.6563,428.2344 148.0625,428.0938 147.1875,428.0938 C144.5625,428.0938 142.5625,430.1719 142.5625,432.8906 L142.5625,434.0156 C142.5625,436.5938 144.6719,438.4844 147.5625,438.4844 C148.7813,438.4844 149.9375,438.1875 150.6875,437.6406 C151.2656,437.2344 151.5938,436.7813 151.5938,436.3906 C151.5938,435.9375 151.2031,435.5469 150.7344,435.5469 C150.5156,435.5469 150.3125,435.625 150.125,435.8125 C149.6719,436.2969 149.6719,436.2969 149.4844,436.3906 C149.0625,436.6563 148.375,436.7813 147.6094,436.7813 C145.5625,436.7813 144.2656,435.6875 144.2656,433.9844 L144.2656,432.8906 C144.2656,431.1094 145.5156,429.7969 147.25,429.7969 C147.8281,429.7969 148.4375,429.9531 148.9063,430.2031 C149.3906,430.4844 149.5625,430.7031 149.6563,431.1094 C149.7188,431.5156 149.75,431.6406 149.8906,431.7656 C150.0313,431.9063 150.2656,432.0156 150.4844,432.0156 C150.75,432.0156 151.0156,431.875 151.1875,431.6563 C151.2969,431.5 151.3281,431.3125 151.3281,430.8906 L151.3281,429.4688 C151.3281,429.0313 151.3125,428.9063 151.2188,428.75 C151.0625,428.4844 150.7813,428.3438 150.4844,428.3438 C150.1875,428.3438 149.9844,428.4375 149.7656,428.75 L149.5938,428.6719 Z " fill="#000000"/><text fill="#000000" font-family="sans-serif" font-size="14" lengthAdjust="spacing" textLength="57" x="167.75" y="437.8467">Address</text><line style="stroke:#181818;stroke-width:0.5;" x1="23" x2="337" y1="449" y2="449"/><ellipse cx="33" cy="462.6484" fill="none" rx="3" ry="3" style="stroke:#038048;stroke-width:1.0;"/><text fill="#000000" font-family="sans-serif" font-size="14" lengthAdjust="spacing" textLength="61" x="42" y="465.9951">A: string</text><ellipse cx="33" cy="478.9453" fill="none" rx="3" ry="3" style="stroke:#038048;stroke-width:1.0;"/><text fill="#000000" font-family="sans-serif" font-size="14" lengthAdjust="spacing" textLength="61" x="42" y="482.292">B: string</text><ellipse cx="33" cy="495.2422" fill="none" rx="3" ry="3" style="stroke:#038048;stroke-width:1.0;"/><text fill="#000000" font-family="sans-serif" font-size="14" lengthAdjust="spacing" textLength="98" x="42" y="498.5889">Street: string</text><ellipse cx="33" cy="511.5391" fill="none" rx="3" ry="3" style="stroke:#038048;stroke-width:1.0;"/><text fill="#000000" font-family="sans-serif" font-size="14" lengthAdjust="spacing" textLength="80" x="42" y="514.8857">City: string</text><ellipse cx="33" cy="527.8359" fill="none" rx="3" ry="3" style="stroke:#038048;stroke-width:1.0;"/><text fill="#000000" font-family="sans-serif" font-size="14" lengthAdjust="spacing" textLength="132" x="42" y="531.1826">PostalCode: string</text><ellipse cx="33" cy="544.1328" fill="none" rx="3" ry="3" style="stroke:#038048;stroke-width:1.0;"/><text fill="#000000" font-family="sans-serif" font-size="14" lengthAdjust="spacing" textLength="108" x="42" y="547.4795">Country: string</text><ellipse cx="33" cy="560.4297" fill="none" rx="3" ry="3" style="stroke:#038048;stroke-width:1.0;"/><text fill="#000000" font-family="sans-serif" font-size="14" lengthAdjust="spacing" textLength="202" x="42" y="563.7764">CustomChannel: chan string</text><ellipse cx="33" cy="576.7266" fill="none" rx="3" ry="3" style="stroke:#038048;stroke-width:1.0;"/><text fill="#000000" font-family="sans-serif" font-size="14" lengthAdjust="spacing" textLength="167" x="42" y="580.0732">AnInterface: *interface</text><line style="stroke:#181818;stroke-width:0.5;" x1="23" x2="337" y1="587.375" y2="587.375"/><ellipse cx="33" cy="601.0234" fill="#84BE84" rx="3" ry="3" style="stroke:#038048;stroke-width:1.0;"/><text fill="#000000" font-family="sans-serif" font-size="14" lengthAdjust="spacing" textLength="290" x="42" y="604.3701">FullAddress(withPostalCode bool): string</text></g><!--MD5=[435987a092acd998883c72f97c5c9408]
class Number--><g id="elem_Number"><rect codeLine="28" fill="#F1F1F1" height="48" id="Number" rx="2.5" ry="2.5" style="stroke:#181818;stroke-width:0.5;" width="89" x="296.5" y="65.5"/><ellipse cx="311.5" cy="81.5" fill="#B4A7E5" rx="11" ry="11" style="stroke:#181818;stroke-width:1.0;"/><path d="M312.4531,78.2813 L314.1719,78.2813 C314.5625,78.2813 314.75,78.25 314.875,78.1719 C315.1406,78.0156 315.2813,77.7344 315.2813,77.4375 C315.2813,77.1719 315.1719,76.9063 314.9375,76.7344 C314.7656,76.625 314.625,76.5938 314.1719,76.5938 L309.0313,76.5938 C308.5938,76.5938 308.4688,76.6094 308.3125,76.7031 C308.0625,76.8594 307.9063,77.1563 307.9063,77.4375 C307.9063,77.7188 308.0469,77.9688 308.2656,78.1406 C308.4219,78.25 308.6094,78.2813 309.0313,78.2813 L310.75,78.2813 L310.75,84.7969 L309.0313,84.7969 C308.5938,84.7969 308.4688,84.8125 308.3125,84.9219 C308.0625,85.0781 307.9063,85.3594 307.9063,85.6563 C307.9063,85.9063 308.0469,86.1719 308.2656,86.3281 C308.4219,86.4531 308.625,86.5 309.0313,86.5 L314.1719,86.5 C314.9219,86.5 315.2813,86.2188 315.2813,85.6563 C315.2813,85.375 315.1719,85.125 314.9375,84.9531 C314.7656,84.8281 314.625,84.7969 314.1719,84.7969 L312.4531,84.7969 L312.4531,78.2813 Z " fill="#000000"/><text fill="#000000" font-family="sans-serif" font-size="14" font-style="italic" lengthAdjust="spacing" textLength="57" x="325.5" y="86.3467">Number</text><line style="stroke:#181818;stroke-width:0.5;" x1="297.5" x2="384.5" y1="97.5" y2="97.5"/><line style="stroke:#181818;stroke-width:0.5;" x1="297.5" x2="384.5" y1="105.5" y2="105.5"/></g><!--MD5=[1e7d75127ad0209fc3cd6e4db39434dc]
class Calculator[T]--><g id="elem_Calculator[T]"><rect codeLine="31" fill="#F1F1F1" height="96.8906" id="Calculator[T]" rx="2.5" ry="2.5" style="stroke:#181818;stroke-width:0.5;" width="163" x="98.5" y="41"/><ellipse cx="131.5" cy="57" fill="#ADD1B2" rx="11" ry="11" style="stroke:#181818;stroke-width:1.0;"/><path d="M133.8438,52.6719 C132.9063,52.2344 132.3125,52.0938 131.4375,52.0938 C128.8125,52.0938 126.8125,54.1719 126.8125,56.8906 L126.8125,58.0156 C126.8125,60.5938 128.9219,62.4844 131.8125,62.4844 C133.0313,62.4844 134.1875,62.1875 134.9375,61.6406 C135.5156,61.2344 135.8438,60.7813 135.8438,60.3906 C135.8438,59.9375 135.4531,59.5469 134.9844,59.5469 C134.7656,59.5469 134.5625,59.625 134.375,59.8125 C133.9219,60.2969 133.9219,60.2969 133.7344,60.3906 C133.3125,60.6563 132.625,60.7813 131.8594,60.7813 C129.8125,60.7813 128.5156,59.6875 128.5156,57.9844 L128.5156,56.8906 C128.5156,55.1094 129.7656,53.7969 131.5,53.7969 C132.0781,53.7969 132.6875,53.9531 133.1563,54.2031 C133.6406,54.4844 133.8125,54.7031 133.9063,55.1094 C133.9688,55.5156 134,55.6406 134.1406,55.7656 C134.2813,55.9063 134.5156,56.0156 134.7344,56.0156 C135,56.0156 135.2656,55.875 135.4375,55.6563 C135.5469,55.5 135.5781,55.3125 135.5781,54.8906 L135.5781,53.4688 C135.5781,53.0313 135.5625,52.9063 135.4688,52.75 C135.3125,52.4844 135.0313,52.3438 134.7344,52.3438 C134.4375,52.3438 134.2344,52.4375 134.0156,52.75 L133.8438,52.6719 Z " fill="#000000"/><text fill="#000000" font-family="sans-serif" font-size="14" lengthAdjust="spacing" textLength="91" x="149.5" y="61.8467">Calculator[T]</text><line style="stroke:#181818;stroke-width:0.5;" x1="99.5" x2="260.5" y1="73" y2="73"/><rect fill="none" height="6" style="stroke:#C82930;stroke-width:1.0;" width="6" x="106.5" y="83.6484"/><text fill="#000000" font-family="sans-serif" font-size="14" lengthAdjust="spacing" textLength="84" x="118.5" y="89.9951">owner: User</text><line style="stroke:#181818;stroke-width:0.5;" x1="99.5" x2="260.5" y1="97.2969" y2="97.2969"/><ellipse cx="109.5" cy="110.9453" fill="#84BE84" rx="3" ry="3" style="stroke:#038048;stroke-width:1.0;"/><text fill="#000000" font-family="sans-serif" font-size="14" lengthAdjust="spacing" textLength="108" x="118.5" y="114.292">Add(a T, b T): T</text><ellipse cx="109.5" cy="127.2422" fill="#84BE84" rx="3" ry="3" style="stroke:#038048;stroke-width:1.0;"/><text fill="#000000" font-family="sans-serif" font-size="14" lengthAdjust="spacing" textLength="137" x="118.5" y="130.5889">Multiply(a T, b T): T</text></g><!--MD5=[5863049802ada814724031af0a18a8c1]
class test/user/models--><g id="elem_test/user/models"><rect codeLine="38" fill="#F1F1F1" height="64.2969" id="test/user/models" rx="2.5" ry="2.5" style="stroke:#181818;stroke-width:0.5;" width="209" x="340.5" y="245.5"/><ellipse cx="380.25" cy="261.5" fill="#E3664A" rx="11" ry="11" style="stroke:#181818;stroke-width:1.0;"/><path d="M381.1719,258.75 C379.2656,258.8906 377.9531,260.0781 377.9531,261.6563 C377.9531,263.0625 379.1563,264.2813 380.6094,264.2813 C380.7656,264.2813 380.9063,264.2656 381.1719,264.2188 L381.1719,264.2813 L381.9688,264.2813 C382.5938,264.2813 382.9063,264.0625 382.9063,263.5781 C382.9063,263.2969 382.7813,263.1094 382.5156,262.9844 L382.5156,258.2031 C382.5156,256.3125 381.2031,254.9531 379.3594,254.9531 C377.1563,254.9531 375.5469,257.0781 375.5469,260.0156 L375.5469,262.875 C375.5469,264.125 375.8281,265.3438 376.3438,266.2656 C377.0625,267.5156 377.9844,268.0781 379.3906,268.0781 C381,268.0781 382.3906,267.4219 382.3906,266.625 C382.3906,266.2344 382.0938,265.9219 381.7188,265.9219 C381.5156,265.9219 381.4219,265.9688 381.1875,266.2188 C380.8594,266.5469 380.1875,266.7656 379.4375,266.7656 C378.6875,266.7656 378.1563,266.5 377.75,265.9063 C377.1719,265.1094 376.8906,264.0625 376.8906,262.7656 L376.8906,260.1094 C376.8906,257.9375 377.9531,256.2969 379.3906,256.2969 C380.4375,256.2969 381.1719,257.0781 381.1719,258.2031 L381.1719,258.75 Z M381.1719,262.8594 C380.9375,262.9063 380.8438,262.9063 380.7344,262.9063 C379.9063,262.9063 379.2969,262.375 379.2969,261.6719 C379.2969,260.8438 380.0469,260.2344 381.1719,260.125 L381.1719,262.8594 Z " fill="#000000"/><text fill="#000000" font-family="sans-serif" font-size="14" lengthAdjust="spacing" textLength="122" x="399.75" y="266.3467">test/user/models</text><line style="stroke:#181818;stroke-width:0.5;" x1="341.5" x2="548.5" y1="277.5" y2="277.5"/><line style="stroke:#181818;stroke-width:0.5;" x1="341.5" x2="548.5" y1="285.5" y2="285.5"/><ellipse cx="351.5" cy="299.1484" fill="#84BE84" rx="3" ry="3" style="stroke:#038048;stroke-width:1.0;"/><text fill="#000000" font-family="sans-serif" font-size="14" lengthAdjust="spacing" textLength="183" x="360.5" y="302.4951">PackageFunction(): string</text></g><!--MD5=[3fd616f346a44cd59a91eb10b19e157c]
class User--><g id="elem_User"><rect codeLine="43" fill="#F1F1F1" height="129.4844" id="User" rx="2.5" ry="2.5" style="stroke:#181818;stroke-width:0.5;" width="251" x="54.5" y="213"/><ellipse cx="160.25" cy="229" fill="#ADD1B2" rx="11" ry="11" style="stroke:#181818;stroke-width:1.0;"/><path d="M162.5938,224.6719 C161.6563,224.2344 161.0625,224.0938 160.1875,224.0938 C157.5625,224.0938 155.5625,226.1719 155.5625,228.8906 L155.5625,230.0156 C155.5625,232.5938 157.6719,234.4844 160.5625,234.4844 C161.7813,234.4844 162.9375,234.1875 163.6875,233.6406 C164.2656,233.2344 164.5938,232.7813 164.5938,232.3906 C164.5938,231.9375 164.2031,231.5469 163.7344,231.5469 C163.5156,231.5469 163.3125,231.625 163.125,231.8125 C162.6719,232.2969 162.6719,232.2969 162.4844,232.3906 C162.0625,232.6563 161.375,232.7813 160.6094,232.7813 C158.5625,232.7813 157.2656,231.6875 157.2656,229.9844 L157.2656,228.8906 C157.2656,227.1094 158.5156,225.7969 160.25,225.7969 C160.8281,225.7969 161.4375,225.9531 161.9063,226.2031 C162.3906,226.4844 162.5625,226.7031 162.6563,227.1094 C162.7188,227.5156 162.75,227.6406 162.8906,227.7656 C163.0313,227.9063 163.2656,228.0156 163.4844,228.0156 C163.75,228.0156 164.0156,227.875 164.1875,227.6563 C164.2969,227.5 164.3281,227.3125 164.3281,226.8906 L164.3281,225.4688 C164.3281,225.0313 164.3125,224.9063 164.2188,224.75 C164.0625,224.4844 163.7813,224.3438 163.4844,224.3438 C163.1875,224.3438 162.9844,224.4375 162.7656,224.75 L162.5938,224.6719 Z " fill="#000000"/><text fill="#000000" font-family="sans-serif" font-size="14" lengthAdjust="spacing" textLength="31" x="180.75" y="233.8467">User</text><line style="stroke:#181818;stroke-width:0.5;" x1="55.5" x2="304.5" y1="245" y2="245"/><ellipse cx="65.5" cy="258.6484" fill="none" rx="3" ry="3" style="stroke:#038048;stroke-width:1.0;"/><text fill="#000000" font-family="sans-serif" font-size="14" lengthAdjust="spacing" textLength="124" x="74.5" y="261.9951">FirstName: string</text><ellipse cx="65.5" cy="274.9453" fill="none" rx="3" ry="3" style="stroke:#038048;stroke-width:1.0;"/><text fill="#000000" font-family="sans-serif" font-size="14" lengthAdjust="spacing" textLength="122" x="74.5" y="278.292">LastName: string</text><ellipse cx="65.5" cy="291.2422" fill="none" rx="3" ry="3" style="stroke:#038048;stroke-width:1.0;"/><text fill="#000000" font-family="sans-serif" font-size="14" lengthAdjust="spacing" textLength="73" x="74.5" y="294.5889">Age: uint8</text><ellipse cx="65.5" cy="307.5391" fill="none" rx="3" ry="3" style="stroke:#038048;stroke-width:1.0;"/><text fill="#000000" font-family="sans-serif" font-size="14" lengthAdjust="spacing" textLength="130" x="74.5" y="310.8857">Address: *Address</text><line style="stroke:#181818;stroke-width:0.5;" x1="55.5" x2="304.5" y1="318.1875" y2="318.1875"/><ellipse cx="65.5" cy="331.8359" fill="#84BE84" rx="3" ry="3" style="stroke:#038048;stroke-width:1.0;"/><text fill="#000000" font-family="sans-serif" font-size="14" lengthAdjust="spacing" textLength="225" x="74.5" y="335.1826">SetFirstName(firstName string)</text></g><!--MD5=[6cb56ad2db0e14266f83041296b08dce]
link User to Address--><g id="link_User_Address"><path codeLine="51" d="M180,342.094 C180,363.541 180,388.047 180,411.69 " fill="none" id="User-to-Address" style="stroke:#181818;stroke-width:1.0;"/><polygon fill="#181818" points="180,416.72,184,407.72,180,411.72,176,407.72,180,416.72" style="stroke:#181818;stroke-width:1.0;"/></g><!--MD5=[925c26cd342f6844d0b0a823255b91c1]
link Calculator[T] to User--><g id="link_Calculator[T]_User"><path codeLine="52" d="M180,138.4 C180,159.514 180,184.721 180,207.786 " fill="none" id="Calculator[T]-to-User" style="stroke:#181818;stroke-width:1.0;"/><polygon fill="#181818" points="180,212.979,184,203.979,180,207.979,176,203.979,180,212.979" style="stroke:#181818;stroke-width:1.0;"/></g><!--MD5=[c7297c3442999a1bddcd4bb8818ae489]
link Address to AddressLike--><g id="link_Address_AddressLike"><path codeLine="53" d="M180,612.271 C180,625.984 180,639.61 180,651.975 " fill="none" id="Address-to-AddressLike" style="stroke:#181818;stroke-width:1.0;"/><polygon fill="none" points="187,651.996,180,671.9963,173,651.996,187,651.996" style="stroke:#181818;stroke-width:1.0;"/></g><!--MD5=[0720165aff88c9c471a0f2e67dd4e26b]
@startuml
package test/address/models{
annotation test/address/models {
-const StartingStreetNumber: INT
-var B: STRING
-var PackageVariable: STRING
-var AnotherPackageVariable: STRING
-var EmptyVariable: string
-var AnotherEmptyVariable: string
-var A: STRING

}
interface AddressLike{
+FullAddress(withPostalCode bool): string
}
class Address {
+A: string
+B: string
+Street: string
+City: string
+PostalCode: string
+Country: string
+CustomChannel: chan string
+AnInterface: *interface
+FullAddress(withPostalCode bool): string
}
}
package test/calculator/models{
interface Number{

}
class Calculator[T] {
-owner: User
+Add(a T, b T): T
+Multiply(a T, b T): T
}
}
package test/user/models{
annotation test/user/models {


+PackageFunction(): string
}
class User {
+FirstName: string
+LastName: string
+Age: uint8
+Address: *Address
+SetFirstName(firstName string)
}
}
"User" - -> "Address"
"Calculator[T]" - -> "User"
"Address" - -|> "AddressLike"
@enduml

PlantUML version 1.2022.13beta8(Unknown compile time)
(GPL source distribution)
Java Runtime: Java(TM) SE Runtime Environment
JVM: Java HotSpot(TM) 64-Bit Server VM
Default Encoding: UTF-8
Language: en
Country: US
--></g></svg>